<?xml version="1.0" encoding="UTF-8"?>
<svg id="_图层_2" data-name="图层 2" xmlns="http://www.w3.org/2000/svg" viewBox="0 0 112 92.66">
  <defs>
    <style>
      .cls-1 {
        fill: #fff;
      }
    </style>
  </defs>
  <g id="_图层_1-2" data-name="图层 1">
    <path class="cls-1" d="M112,2.68l-29-.02c-8.46,0-12.8,8.29-16.01,15.8l-4.89-11.01,8.21-3.03c-4.81-4.55-19.78-7.03-21.75-.18l-3.53,14.21c-2.79-6.4-6.72-15.76-15.59-15.77H0c3.83,6.77,7.48,9.2,21.02,8.62l1.77,4.66-14.84.08c4.38,8.08,6.91,8.42,18.86,8.08l2.53,5.58-11.67.42c2.51,5.71,5.14,8.16,15.16,7.7l1.95,4.95-9.29.05c3.49,5.75,5.21,8.39,12.57,7.74l1.98,5.39h-6.44c2.78,6.21,6.02,6.47,9.97,7.09,3.55.55,4.06,7.21-.08,9.34l12.49,20.27,12.5-20.27c-4.16-2.14-3.64-8.79-.08-9.34,3.96-.62,7.19-.87,9.96-7.09h-6.42l1.97-5.39c7.35.65,9.08-1.99,12.57-7.73l-9.28-.06,1.95-4.95c10.02.47,12.66-1.99,15.16-7.7l-11.67-.41,2.53-5.58c11.95.33,14.48,0,18.86-8.09l-14.85-.06,1.78-4.67c13.52.59,17.19-1.85,21.02-8.61"/>
  </g>
</svg>